<?xml version="1.0" encoding="utf-8"?>
<!-- Generator: Adobe Illustrator 19.2.0, SVG Export Plug-In . SVG Version: 6.00 Build 0)  -->
<svg version="1.1" id="Capa_1" xmlns="http://www.w3.org/2000/svg" xmlns:xlink="http://www.w3.org/1999/xlink" x="0px" y="0px"
	 viewBox="0 0 218.5 54" style="enable-background:new 0 0 218.5 54;" xml:space="preserve">
<style type="text/css">
	.st0{fill-rule:evenodd;clip-rule:evenodd;fill:#1D1D1B;}
	.st1{fill-rule:evenodd;clip-rule:evenodd;fill:#ED1C24;}
	.st2{fill:#ED1C24;}
	.st3{fill-rule:evenodd;clip-rule:evenodd;fill:#FFFFFF;}
	.st4{fill:#FFFFFF;}
</style>
<g>
	<g>
		<path class="st0" d="M29,43.1c-9.2,0-16.6-7.4-16.6-16.6c0-9.2,7.4-16.6,16.6-16.6c3.5,0,6.7,1.1,9.3,2.9c0-1.8,0-3.7,0-5.5
			C28,1.3,28.7,2,18.4,8C7.3,14.4,7.7,13.7,7.7,26.5c0,12.8-0.4,12.1,10.7,18.5c11.1,6.4,10.3,6.4,21.3,0
			c11.1-6.4,10.7-5.7,10.7-18.5c0-4.1,0-8.2,0-12.3c-1.6-0.9-3.1-1.8-4.7-2.7c0,5,0,10,0,15C45.7,35.7,38.2,43.1,29,43.1z"/>
		<path class="st1" d="M37.5,22.6c-4.9-2.9-12.7,9-17.7,3c0,0.3,0,0.6,0,0.9c0,5.1,4.2,9.3,9.3,9.3s9.3-4.2,9.3-9.3
			C38.4,25.1,38,23.8,37.5,22.6L37.5,22.6z M26.8,21.2c0.8,0.2,1.3,1.1,1.1,1.9c-0.2,0.8-1.1,1.3-1.9,1.1c-0.8-0.2-1.3-1.1-1.1-1.9
			C25.1,21.5,25.9,21,26.8,21.2L26.8,21.2z M27.9,17.2c0.4,0.1,0.7,0.5,0.5,1c-0.1,0.4-0.5,0.7-1,0.5c-0.4-0.1-0.7-0.5-0.5-1
			C27,17.3,27.5,17.1,27.9,17.2L27.9,17.2z M31,19.3c0.6,0.2,0.9,0.7,0.8,1.3c-0.2,0.6-0.7,0.9-1.3,0.8c-0.6-0.2-0.9-0.7-0.8-1.3
			C29.8,19.4,30.4,19.1,31,19.3L31,19.3z M29.3,30.4c0.9,0,1.6,0.7,1.6,1.6c0,0.9-0.7,1.6-1.6,1.6c-0.9,0-1.6-0.7-1.6-1.6
			C27.7,31.1,28.4,30.4,29.3,30.4L29.3,30.4z M29.3,26.3c0.4,0,0.8,0.3,0.8,0.8c0,0.4-0.3,0.8-0.8,0.8c-0.4,0-0.8-0.3-0.8-0.8
			C28.5,26.6,28.8,26.3,29.3,26.3L29.3,26.3z M32.8,27.5c0.6,0,1.1,0.5,1.1,1.1c0,0.6-0.5,1.1-1.1,1.1c-0.6,0-1.1-0.5-1.1-1.1
			C31.7,28,32.2,27.5,32.8,27.5z"/>
	</g>
	<g>
		<path class="st0" d="M70.5,23.3c-1.1-0.5-2.4-0.8-3.8-0.8c-3.1,0-4.7,1.6-4.7,4.9c0,3.9,1.6,5.9,4.7,5.9c1.4,0,2.7-0.2,3.8-0.6
			V23.3L70.5,23.3z M73.2,34.6c-1.9,0.6-4.2,0.9-6.9,0.9c-4.6,0-6.9-2.7-6.9-8c0-4.9,2.4-7.4,7.3-7.4c1.3,0,2.6,0.2,3.8,0.7v-6.3
			h2.7V34.6L73.2,34.6z M84,20.1c4.4,0,6.6,2.2,6.6,6.5c0,0.6,0,1.3-0.1,2H79.6c0,3.2,1.8,4.7,5.5,4.7c1.7,0,3.3-0.2,4.7-0.6V35
			c-1.4,0.4-3,0.6-5,0.6c-5.3,0-7.9-2.6-7.9-7.9C76.9,22.6,79.3,20.1,84,20.1L84,20.1z M79.6,26.3H88c-0.1-2.7-1.4-4.1-4-4.1
			C81.3,22.3,79.8,23.6,79.6,26.3L79.6,26.3z M94.2,35.5V20.1h1.8l0.5,2c1.6-1.3,3.3-2,5.2-2c3.9,0,5.8,1.9,5.8,5.7v9.7h-2.7v-9.7
			c0-2.3-1.1-3.4-3.4-3.4c-1.6,0-3,0.7-4.4,2v11.2H94.2L94.2,35.5z M111.8,34.8v-2.4c1.8,0.6,3.6,0.9,5.5,0.9c2.5,0,3.7-0.7,3.7-2.2
			c0-1.4-0.9-2.1-2.6-2.1h-2.2c-3.3,0-5-1.5-5-4.6c0-2.9,2.1-4.4,6.4-4.4c1.8,0,3.7,0.2,5.5,0.7v2.4c-1.8-0.6-3.6-0.9-5.5-0.9
			c-2.6,0-3.8,0.7-3.8,2.2c0,1.4,0.8,2.1,2.4,2.1h2.2c3.5,0,5.3,1.5,5.3,4.6c0,2.9-2.1,4.4-6.4,4.4
			C115.4,35.5,113.6,35.3,111.8,34.8L111.8,34.8z M130.4,20.1v15.4h-2.7V20.1H130.4L130.4,20.1z M130.4,14.5v2.6h-2.7v-2.6H130.4
			L130.4,14.5z M135.1,17.6h1.7l0.6,2.5h4.2v2.2h-3.7v8.9c0,1.4,0.6,2.2,1.9,2.2h1.9v2.2h-2.6c-2.6,0-3.9-1.4-3.9-4.2V17.6
			L135.1,17.6z M143.1,20.1h3l4.4,12l4.5-12h2.9L151.4,36c-1.1,2.8-2.8,4.5-5.1,5.2l-1-1.9c1.7-0.8,3-2,3.8-3.7L143.1,20.1z"/>
		<path class="st2" d="M163.9,14.5v21H160v-21H163.9L163.9,14.5z M166.9,30.7c0-3.1,2.2-4.6,6.7-4.6c1,0,2.1,0.1,3.1,0.3v-1.2
			c0-1.4-1-2.1-3-2.1c-1.7,0-3.6,0.2-5.6,0.7v-3.1c2.1-0.5,3.9-0.7,5.6-0.7c4.6,0,6.9,1.7,6.9,5.1v10.3h-2.3l-1.4-1.4
			c-1.3,0.9-2.8,1.4-4.4,1.4C168.8,35.5,166.9,33.9,166.9,30.7L166.9,30.7z M176.7,29.1c-1-0.2-2-0.3-3.1-0.3
			c-1.9,0-2.8,0.6-2.8,1.9c0,1.4,0.8,2.1,2.4,2.1c1.3,0,2.5-0.4,3.6-1.2V29.1L176.7,29.1z M188.2,32c0.9,0.3,1.9,0.4,3.1,0.4
			c2.4,0,3.5-1.7,3.5-5c0-2.7-1-4.1-3-4.1c-1.3,0-2.5,0.3-3.6,0.8V32L188.2,32z M184.3,14.5h3.9v6.8c1.2-0.8,2.5-1.2,3.9-1.2
			c4.4,0,6.6,2.5,6.6,7.4c0,5.3-2.5,8-7.5,8c-2.1,0-4.4-0.2-6.8-0.6V14.5L184.3,14.5z M201.6,34.8v-3.2c1.7,0.7,3.7,1,5.9,1
			c1.7,0,2.5-0.5,2.5-1.6c0-1-0.6-1.5-1.7-1.5h-2.8c-3.1,0-4.7-1.5-4.7-4.6c0-3.2,2.3-4.8,6.9-4.8c1.9,0,3.8,0.3,5.5,0.9v3.2
			c-1.7-0.7-3.6-1-5.6-1c-2.1,0-3.2,0.5-3.2,1.6c0,1,0.6,1.5,1.8,1.5h2.5c3.4,0,5.1,1.5,5.1,4.6c0,3.2-2.2,4.8-6.5,4.8
			C205.2,35.7,203.3,35.4,201.6,34.8z"/>
	</g>
</g>
</svg>
